http://192.168.1.200:8096/videos/99f0e1fe-d5eb-4970-9ed3-50d09786ca9d/hls1/main/0.ts?DeviceId=TW96aWxsYS81LjAgKFdpbmRvd3MgTlQgMTAuMDsgV2luNjQ7IHg2NDsgcnY6NzAuMCkgR2Vja28vMjAxMDAxMDEgRmlyZWZveC83MC4wfDE1NzUzMzEyOTQ2MDM1&MediaSourceId=99f0e1fed5eb49709ed350d09786ca9d&VideoCodec=h264&AudioCodec=aac&AudioStreamIndex=1&VideoBitrate=139680000&AudioBitrate=320000&PlaySessionId=e014f2c667c04857a59814b9de0ee70b&api_key=9f0b1aca84b149fd9ff097ababcaf638&TranscodingMaxAudioChannels=2&RequireAvc=false&Tag=b251e93daad8b361880114b081cd07d4&SegmentContainer=ts&MinSegments=1&BreakOnNonKeyFrames=True&h264-profile=high,main,baseline,constrainedbaseline&h264-level=51

{"Protocol":"File","Id":"99f0e1fed5eb49709ed350d09786ca9d","Path":"/media/tv/Star Wars - The Clone Wars/Season 1/Star Wars The Clone Wars (2008) - S01E19 - Storm Over Ryloth (1080p BluRay x265 RCVR).mkv","Type":"Default","Container":"mkv,webm","Size":599156224,"Name":"Star Wars The Clone Wars (2008) - S01E19 - Storm Over Ryloth (1080p BluRay x265 RCVR)","IsRemote":false,"ETag":"b251e93daad8b361880114b081cd07d4","RunTimeTicks":14558699520,"ReadAtNativeFramerate":false,"IgnoreDts":false,"IgnoreIndex":false,"GenPtsInput":false,"SupportsTranscoding":true,"SupportsDirectStream":true,"SupportsDirectPlay":true,"IsInfiniteStream":false,"RequiresOpening":false,"RequiresClosing":false,"RequiresLooping":false,"SupportsProbing":true,"VideoType":"VideoFile","MediaStreams":[{"Codec":"hevc","TimeBase":"1/1000","CodecTimeBase":"1001/24000","VideoRange":"SDR","DisplayTitle":"1080P HEVC","IsInterlaced":false,"BitRate":3292361,"RefFrames":1,"IsDefault":true,"IsForced":false,"Height":808,"Width":1920,"AverageFrameRate":23.9760246,"RealFrameRate":23.9760246,"Profile":"Main 10","Type":"Video","AspectRatio":"2.40:1","Index":0,"IsExternal":false,"IsTextSubtitleStream":false,"SupportsExternalStream":false,"PixelFormat":"yuv420p10le","Level":120},{"Codec":"aac","Language":"eng","TimeBase":"1/1000","CodecTimeBase":"1/48000","DisplayTitle":"Eng AAC 5.1 Default","IsInterlaced":false,"ChannelLayout":"5.1","BitRate":320000,"Channels":6,"SampleRate":48000,"IsDefault":true,"IsForced":false,"Profile":"LC","Type":"Audio","Index":1,"IsExternal":false,"IsTextSubtitleStream":false,"SupportsExternalStream":false,"Level":0},{"Codec":"aac","Language":"fre","TimeBase":"1/1000","CodecTimeBase":"1/48000","DisplayTitle":"Fre AAC 5.1","IsInterlaced":false,"ChannelLayout":"5.1","BitRate":320000,"Channels":6,"SampleRate":48000,"IsDefault":false,"IsForced":false,"Profile":"HE-AAC","Type":"Audio","Index":2,"IsExternal":false,"IsTextSubtitleStream":false,"SupportsExternalStream":false,"Level":0},{"Codec":"aac","Language":"ger","TimeBase":"1/1000","CodecTimeBase":"1/48000","DisplayTitle":"Ger AAC 5.1","IsInterlaced":false,"ChannelLayout":"5.1","BitRate":320000,"Channels":6,"SampleRate":48000,"IsDefault":false,"IsForced":false,"Profile":"HE-AAC","Type":"Audio","Index":3,"IsExternal":false,"IsTextSubtitleStream":false,"SupportsExternalStream":false,"Level":0},{"Codec":"aac","Language":"spa","TimeBase":"1/1000","CodecTimeBase":"1/48000","DisplayTitle":"Spa AAC 5.1","IsInterlaced":false,"ChannelLayout":"5.1","BitRate":320000,"Channels":6,"SampleRate":48000,"IsDefault":false,"IsForced":false,"Profile":"HE-AAC","Type":"Audio","Index":4,"IsExternal":false,"IsTextSubtitleStream":false,"SupportsExternalStream":false,"Level":0},{"Codec":"aac","Language":"spa","TimeBase":"1/1000","CodecTimeBase":"1/48000","DisplayTitle":"Spa AAC 5.1","IsInterlaced":false,"ChannelLayout":"5.1","BitRate":320000,"Channels":6,"SampleRate":48000,"IsDefault":false,"IsForced":false,"Profile":"HE-AAC","Type":"Audio","Index":5,"IsExternal":false,"IsTextSubtitleStream":false,"SupportsExternalStream":false,"Level":0},{"Codec":"DVDSUB","Language":"eng","TimeBase":"1/1000","CodecTimeBase":"0/1","localizedUndefined":"Undefined","localizedDefault":"Default","localizedForced":"Forced","DisplayTitle":"Eng","IsInterlaced":false,"IsDefault":false,"IsForced":false,"Type":"Subtitle","Index":6,"IsExternal":false,"IsTextSubtitleStream":false,"SupportsExternalStream":false,"Level":0},{"Codec":"DVDSUB","Language":"fre","TimeBase":"1/1000","CodecTimeBase":"0/1","localizedUndefined":"Undefined","localizedDefault":"Default","localizedForced":"Forced","DisplayTitle":"Fre","IsInterlaced":false,"IsDefault":false,"IsForced":false,"Type":"Subtitle","Index":7,"IsExternal":false,"IsTextSubtitleStream":false,"SupportsExternalStream":false,"Level":0},{"Codec":"DVDSUB","Language":"ger","TimeBase":"1/1000","CodecTimeBase":"0/1","localizedUndefined":"Undefined","localizedDefault":"Default","localizedForced":"Forced","DisplayTitle":"Ger","IsInterlaced":false,"IsDefault":false,"IsForced":false,"Type":"Subtitle","Index":8,"IsExternal":false,"IsTextSubtitleStream":false,"SupportsExternalStream":false,"Level":0},{"Codec":"DVDSUB","Language":"spa","TimeBase":"1/1000","CodecTimeBase":"0/1","localizedUndefined":"Undefined","localizedDefault":"Default","localizedForced":"Forced","DisplayTitle":"Spa","IsInterlaced":false,"IsDefault":false,"IsForced":false,"Type":"Subtitle","Index":9,"IsExternal":false,"IsTextSubtitleStream":false,"SupportsExternalStream":false,"Level":0},{"Codec":"DVDSUB","Language":"spa","TimeBase":"1/1000","CodecTimeBase":"0/1","localizedUndefined":"Undefined","localizedDefault":"Default","localizedForced":"Forced","DisplayTitle":"Spa","IsInterlaced":false,"IsDefault":false,"IsForced":false,"Type":"Subtitle","Index":10,"IsExternal":false,"IsTextSubtitleStream":false,"SupportsExternalStream":false,"Level":0},{"Codec":"mjpeg","TimeBase":"1/90000","CodecTimeBase":"0/1","IsInterlaced":false,"BitDepth":8,"RefFrames":1,"IsDefault":false,"IsForced":false,"Height":800,"Width":600,"RealFrameRate":90000,"Profile":"Baseline","Type":"EmbeddedImage","AspectRatio":"3:4","Index":11,"IsExternal":false,"IsTextSubtitleStream":false,"SupportsExternalStream":false,"PixelFormat":"yuvj420p","Level":-99}],"Formats":[],"Bitrate":4892361,"RequiredHttpHeaders":{}}

/usr/local/bin/ffmpeg -f matroska,webm -i file:"/media/tv/Star Wars - The Clone Wars/Season 1/Star Wars The Clone Wars (2008) - S01E19 - Storm Over Ryloth (1080p BluRay x265 RCVR).mkv" -map_metadata -1 -map_chapters -1 -threads 0 -map 0:0 -map 0:1 -map -0:s -codec:v:0 libx264 -pix_fmt yuv420p -preset veryfast -crf 23 -maxrate 6584722 -bufsize 13169444 -profile:v high -level 4.1 -x264opts:0 subme=0:me_range=4:rc_lookahead=10:me=dia:no_chroma_me:8x8dct=0:partitions=none -force_key_frames:0 "expr:gte(t,0+n_forced*3)" -vf "scale=trunc(min(max(iw\,ih*dar)\,1920)/2)*2:trunc(ow/dar/2)*2" -copyts -vsync -1 -codec:a:0 copy -f hls -max_delay 5000000 -avoid_negative_ts disabled -start_at_zero -hls_time 3 -individual_header_trailer 0 -hls_segment_type mpegts -start_number 0 -hls_segment_filename "/config/transcoding-temp/b0db7be11c289cd30e15054fc385702e%d.ts" -hls_playlist_type vod -hls_list_size 0 -y "/config/transcoding-temp/b0db7be11c289cd30e15054fc385702e.m3u8"


ffmpeg version 4.2.1 Copyright (c) 2000-2019 the FFmpeg developers
  built with gcc 7 (Ubuntu 7.4.0-1ubuntu1~18.04.1)
  configuration: --disable-debug --disable-doc --disable-ffplay --enable-vaapi --enable-shared --enable-avresample --enable-libopencore-amrnb --enable-libopencore-amrwb --enable-gnutls --enable-gpl --enable-libass --enable-libfreetype --enable-libvidstab --enable-libmp3lame --enable-libopenjpeg --enable-libopus --enable-libtheora --enable-libvorbis --enable-libvpx --enable-libx265 --enable-libxvid --enable-libx264 --enable-libkvazaar --enable-libaom --extra-libs=-lpthread --enable-postproc --enable-cuvid --enable-nvenc --enable-version3 --enable-rpath --extra-cflags=-I/opt/ffmpeg/include --extra-ldflags=-L/opt/ffmpeg/lib --extra-libs=-ldl --prefix=/opt/ffmpeg
  libavutil      56. 31.100 / 56. 31.100
  libavcodec     58. 54.100 / 58. 54.100
  libavformat    58. 29.100 / 58. 29.100
  libavdevice    58.  8.100 / 58.  8.100
  libavfilter     7. 57.100 /  7. 57.100
  libavresample   4.  0.  0 /  4.  0.  0
  libswscale      5.  5.100 /  5.  5.100
  libswresample   3.  5.100 /  3.  5.100
  libpostproc    55.  5.100 / 55.  5.100
Input #0, matroska,webm, from 'file:/media/tv/Star Wars - The Clone Wars/Season 1/Star Wars The Clone Wars (2008) - S01E19 - Storm Over Ryloth (1080p BluRay x265 RCVR).mkv':
  Metadata:
    encoder         : libebml v1.3.4 + libmatroska v1.4.5
    creation_time   : 2018-08-01T19:57:38.000000Z
  Duration: 00:24:15.87, start: 0.000000, bitrate: 3292 kb/s
    Chapter #0:0: start 0.000000, end 460.042917
    Metadata:
      title           : Chapter 01
    Chapter #0:1: start 460.042917, end 919.501917
    Metadata:
      title           : Chapter 02
    Chapter #0:2: start 919.501917, end 1388.637250
    Metadata:
      title           : Chapter 03
    Chapter #0:3: start 1388.637250, end 1455.744000
    Metadata:
      title           : Chapter 04
    Stream #0:0: Video: hevc (Main 10), yuv420p10le(tv), 1920x808, SAR 1:1 DAR 240:101, 23.98 fps, 23.98 tbr, 1k tbn, 23.98 tbc (default)
    Metadata:
      BPS             : 2017477
      BPS-eng         : 2017477
      DURATION        : 00:24:15.204000000
      DURATION-eng    : 00:24:15.204000000
      NUMBER_OF_FRAMES: 34890
      NUMBER_OF_FRAMES-eng: 34890
      NUMBER_OF_BYTES : 366980215
      NUMBER_OF_BYTES-eng: 366980215
      _STATISTICS_WRITING_APP: mkvmerge v12.0.0 ('Trust / Lust') 64bit
      _STATISTICS_WRITING_APP-eng: mkvmerge v12.0.0 ('Trust / Lust') 64bit
      _STATISTICS_WRITING_DATE_UTC: 2018-08-01 19:57:38
      _STATISTICS_WRITING_DATE_UTC-eng: 2018-08-01 19:57:38
      _STATISTICS_TAGS: BPS DURATION NUMBER_OF_FRAMES NUMBER_OF_BYTES
      _STATISTICS_TAGS-eng: BPS DURATION NUMBER_OF_FRAMES NUMBER_OF_BYTES
    Stream #0:1(eng): Audio: aac (LC), 48000 Hz, 5.1, fltp (default)
    Metadata:
      BPS             : 457158
      BPS-eng         : 457158
      DURATION        : 00:24:15.808000000
      DURATION-eng    : 00:24:15.808000000
      NUMBER_OF_FRAMES: 68241
      NUMBER_OF_FRAMES-eng: 68241
      NUMBER_OF_BYTES : 83191824
      NUMBER_OF_BYTES-eng: 83191824
      _STATISTICS_WRITING_APP: mkvmerge v12.0.0 ('Trust / Lust') 64bit
      _STATISTICS_WRITING_APP-eng: mkvmerge v12.0.0 ('Trust / Lust') 64bit
      _STATISTICS_WRITING_DATE_UTC: 2018-08-01 19:57:38
      _STATISTICS_WRITING_DATE_UTC-eng: 2018-08-01 19:57:38
      _STATISTICS_TAGS: BPS DURATION NUMBER_OF_FRAMES NUMBER_OF_BYTES
      _STATISTICS_TAGS-eng: BPS DURATION NUMBER_OF_FRAMES NUMBER_OF_BYTES
    Stream #0:2(fre): Audio: aac (HE-AAC), 48000 Hz, 5.1, fltp
    Metadata:
      BPS             : 191998
      BPS-eng         : 191998
      DURATION        : 00:24:15.830000000
      DURATION-eng    : 00:24:15.830000000
      NUMBER_OF_FRAMES: 34121
      NUMBER_OF_FRAMES-eng: 34121
      NUMBER_OF_BYTES : 34939615
      NUMBER_OF_BYTES-eng: 34939615
      _STATISTICS_WRITING_APP: mkvmerge v12.0.0 ('Trust / Lust') 64bit
      _STATISTICS_WRITING_APP-eng: mkvmerge v12.0.0 ('Trust / Lust') 64bit
      _STATISTICS_WRITING_DATE_UTC: 2018-08-01 19:57:38
      _STATISTICS_WRITING_DATE_UTC-eng: 2018-08-01 19:57:38
      _STATISTICS_TAGS: BPS DURATION NUMBER_OF_FRAMES NUMBER_OF_BYTES
      _STATISTICS_TAGS-eng: BPS DURATION NUMBER_OF_FRAMES NUMBER_OF_BYTES
    Stream #0:3(ger): Audio: aac (HE-AAC), 48000 Hz, 5.1, fltp
    Metadata:
      BPS             : 191997
      BPS-eng         : 191997
      DURATION        : 00:24:15.830000000
      DURATION-eng    : 00:24:15.830000000
      NUMBER_OF_FRAMES: 34121
      NUMBER_OF_FRAMES-eng: 34121
      NUMBER_OF_BYTES : 34939517
      NUMBER_OF_BYTES-eng: 34939517
      _STATISTICS_WRITING_APP: mkvmerge v12.0.0 ('Trust / Lust') 64bit
      _STATISTICS_WRITING_APP-eng: mkvmerge v12.0.0 ('Trust / Lust') 64bit
      _STATISTICS_WRITING_DATE_UTC: 2018-08-01 19:57:38
      _STATISTICS_WRITING_DATE_UTC-eng: 2018-08-01 19:57:38
      _STATISTICS_TAGS: BPS DURATION NUMBER_OF_FRAMES NUMBER_OF_BYTES
      _STATISTICS_TAGS-eng: BPS DURATION NUMBER_OF_FRAMES NUMBER_OF_BYTES
    Stream #0:4(spa): Audio: aac (HE-AAC), 48000 Hz, 5.1, fltp
    Metadata:
      BPS             : 191999
      BPS-eng         : 191999
      DURATION        : 00:24:15.830000000
      DURATION-eng    : 00:24:15.830000000
      NUMBER_OF_FRAMES: 34121
      NUMBER_OF_FRAMES-eng: 34121
      NUMBER_OF_BYTES : 34939747
      NUMBER_OF_BYTES-eng: 34939747
      _STATISTICS_WRITING_APP: mkvmerge v12.0.0 ('Trust / Lust') 64bit
      _STATISTICS_WRITING_APP-eng: mkvmerge v12.0.0 ('Trust / Lust') 64bit
      _STATISTICS_WRITING_DATE_UTC: 2018-08-01 19:57:38
      _STATISTICS_WRITING_DATE_UTC-eng: 2018-08-01 19:57:38
      _STATISTICS_TAGS: BPS DURATION NUMBER_OF_FRAMES NUMBER_OF_BYTES
      _STATISTICS_TAGS-eng: BPS DURATION NUMBER_OF_FRAMES NUMBER_OF_BYTES
    Stream #0:5(spa): Audio: aac (HE-AAC), 48000 Hz, 5.1, fltp
    Metadata:
      BPS             : 191998
      BPS-eng         : 191998
      DURATION        : 00:24:15.830000000
      DURATION-eng    : 00:24:15.830000000
      NUMBER_OF_FRAMES: 34121
      NUMBER_OF_FRAMES-eng: 34121
      NUMBER_OF_BYTES : 34939582
      NUMBER_OF_BYTES-eng: 34939582
      _STATISTICS_WRITING_APP: mkvmerge v12.0.0 ('Trust / Lust') 64bit
      _STATISTICS_WRITING_APP-eng: mkvmerge v12.0.0 ('Trust / Lust') 64bit
      _STATISTICS_WRITING_DATE_UTC: 2018-08-01 19:57:38
      _STATISTICS_WRITING_DATE_UTC-eng: 2018-08-01 19:57:38
      _STATISTICS_TAGS: BPS DURATION NUMBER_OF_FRAMES NUMBER_OF_BYTES
      _STATISTICS_TAGS-eng: BPS DURATION NUMBER_OF_FRAMES NUMBER_OF_BYTES
    Stream #0:6(eng): Subtitle: dvd_subtitle, 1920x1080
    Metadata:
      BPS             : 8925
      BPS-eng         : 8925
      DURATION        : 00:23:54.676000000
      DURATION-eng    : 00:23:54.676000000
      NUMBER_OF_FRAMES: 353
      NUMBER_OF_FRAMES-eng: 353
      NUMBER_OF_BYTES : 1600564
      NUMBER_OF_BYTES-eng: 1600564
      _STATISTICS_WRITING_APP: mkvmerge v12.0.0 ('Trust / Lust') 64bit
      _STATISTICS_WRITING_APP-eng: mkvmerge v12.0.0 ('Trust / Lust') 64bit
      _STATISTICS_WRITING_DATE_UTC: 2018-08-01 19:57:38
      _STATISTICS_WRITING_DATE_UTC-eng: 2018-08-01 19:57:38
      _STATISTICS_TAGS: BPS DURATION NUMBER_OF_FRAMES NUMBER_OF_BYTES
      _STATISTICS_TAGS-eng: BPS DURATION NUMBER_OF_FRAMES NUMBER_OF_BYTES
    Stream #0:7(fre): Subtitle: dvd_subtitle, 1920x1080
    Metadata:
      BPS             : 9440
      BPS-eng         : 9440
      DURATION        : 00:24:00.928000000
      DURATION-eng    : 00:24:00.928000000
      NUMBER_OF_FRAMES: 331
      NUMBER_OF_FRAMES-eng: 331
      NUMBER_OF_BYTES : 1700319
      NUMBER_OF_BYTES-eng: 1700319
      _STATISTICS_WRITING_APP: mkvmerge v12.0.0 ('Trust / Lust') 64bit
      _STATISTICS_WRITING_APP-eng: mkvmerge v12.0.0 ('Trust / Lust') 64bit
      _STATISTICS_WRITING_DATE_UTC: 2018-08-01 19:57:38
      _STATISTICS_WRITING_DATE_UTC-eng: 2018-08-01 19:57:38
      _STATISTICS_TAGS: BPS DURATION NUMBER_OF_FRAMES NUMBER_OF_BYTES
      _STATISTICS_TAGS-eng: BPS DURATION NUMBER_OF_FRAMES NUMBER_OF_BYTES
    Stream #0:8(ger): Subtitle: dvd_subtitle, 1920x1080
    Metadata:
      BPS             : 10048
      BPS-eng         : 10048
      DURATION        : 00:24:00.932000000
      DURATION-eng    : 00:24:00.932000000
      NUMBER_OF_FRAMES: 354
      NUMBER_OF_FRAMES-eng: 354
      NUMBER_OF_BYTES : 1809978
      NUMBER_OF_BYTES-eng: 1809978
      _STATISTICS_WRITING_APP: mkvmerge v12.0.0 ('Trust / Lust') 64bit
      _STATISTICS_WRITING_APP-eng: mkvmerge v12.0.0 ('Trust / Lust') 64bit
      _STATISTICS_WRITING_DATE_UTC: 2018-08-01 19:57:38
      _STATISTICS_WRITING_DATE_UTC-eng: 2018-08-01 19:57:38
      _STATISTICS_TAGS: BPS DURATION NUMBER_OF_FRAMES NUMBER_OF_BYTES
      _STATISTICS_TAGS-eng: BPS DURATION NUMBER_OF_FRAMES NUMBER_OF_BYTES
    Stream #0:9(spa): Subtitle: dvd_subtitle, 1920x1080
    Metadata:
      BPS             : 8686
      BPS-eng         : 8686
      DURATION        : 00:24:00.928000000
      DURATION-eng    : 00:24:00.928000000
      NUMBER_OF_FRAMES: 331
      NUMBER_OF_FRAMES-eng: 331
      NUMBER_OF_BYTES : 1564515
      NUMBER_OF_BYTES-eng: 1564515
      _STATISTICS_WRITING_APP: mkvmerge v12.0.0 ('Trust / Lust') 64bit
      _STATISTICS_WRITING_APP-eng: mkvmerge v12.0.0 ('Trust / Lust') 64bit
      _STATISTICS_WRITING_DATE_UTC: 2018-08-01 19:57:38
      _STATISTICS_WRITING_DATE_UTC-eng: 2018-08-01 19:57:38
      _STATISTICS_TAGS: BPS DURATION NUMBER_OF_FRAMES NUMBER_OF_BYTES
      _STATISTICS_TAGS-eng: BPS DURATION NUMBER_OF_FRAMES NUMBER_OF_BYTES
    Stream #0:10(spa): Subtitle: dvd_subtitle, 1920x1080
    Metadata:
      BPS             : 8631
      BPS-eng         : 8631
      DURATION        : 00:24:10.771000000
      DURATION-eng    : 00:24:10.771000000
      NUMBER_OF_FRAMES: 332
      NUMBER_OF_FRAMES-eng: 332
      NUMBER_OF_BYTES : 1565218
      NUMBER_OF_BYTES-eng: 1565218
      _STATISTICS_WRITING_APP: mkvmerge v12.0.0 ('Trust / Lust') 64bit
      _STATISTICS_WRITING_APP-eng: mkvmerge v12.0.0 ('Trust / Lust') 64bit
      _STATISTICS_WRITING_DATE_UTC: 2018-08-01 19:57:38
      _STATISTICS_WRITING_DATE_UTC-eng: 2018-08-01 19:57:38
      _STATISTICS_TAGS: BPS DURATION NUMBER_OF_FRAMES NUMBER_OF_BYTES
      _STATISTICS_TAGS-eng: BPS DURATION NUMBER_OF_FRAMES NUMBER_OF_BYTES
    Stream #0:11: Video: mjpeg (Baseline), yuvj420p(pc, bt470bg/unknown/unknown), 600x800 [SAR 96:96 DAR 3:4], 90k tbr, 90k tbn, 90k tbc (attached pic)
    Metadata:
      filename        : cover.jpg
      mimetype        : image/jpeg
Stream mapping:
  Stream #0:0 -> #0:0 (hevc (native) -> h264 (libx264))
  Stream #0:1 -> #0:1 (copy)
Press [q] to stop, [?] for help
[libx264 @ 0x55b0697d1880] using SAR=1/1
[libx264 @ 0x55b0697d1880] using cpu capabilities: MMX2 SSE2Fast SSSE3 SSE4.2 AVX FMA3 BMI2 AVX2
[libx264 @ 0x55b0697d1880] profile Main, level 4.1
[libx264 @ 0x55b0697d1880] 264 - core 155 - H.264/MPEG-4 AVC codec - Copyleft 2003-2018 - http://www.videolan.org/x264.html - options: cabac=1 ref=1 deblock=1:0:0 analyse=0x1:0 me=dia subme=0 psy=1 psy_rd=1.00:0.00 mixed_ref=0 me_range=4 chroma_me=0 trellis=0 8x8dct=0 cqm=0 deadzone=21,11 fast_pskip=1 chroma_qp_offset=0 threads=6 lookahead_threads=1 sliced_threads=0 nr=0 decimate=1 interlaced=0 bluray_compat=0 constrained_intra=0 bframes=3 b_pyramid=2 b_adapt=1 b_bias=0 direct=1 weightb=1 open_gop=0 weightp=1 keyint=250 keyint_min=23 scenecut=40 intra_refresh=0 rc_lookahead=10 rc=crf mbtree=1 crf=23.0 qcomp=0.60 qpmin=0 qpmax=69 qpstep=4 vbv_maxrate=6584 vbv_bufsize=13169 crf_max=0.0 nal_hrd=none filler=0 ip_ratio=1.40 aq=1:1.00
[hls @ 0x55b0697c0280] Opening '/config/transcoding-temp/b0db7be11c289cd30e15054fc385702e0.ts' for writing
Output #0, hls, to '/config/transcoding-temp/b0db7be11c289cd30e15054fc385702e.m3u8':
  Metadata:
    encoder         : Lavf58.29.100
    Stream #0:0: Video: h264 (libx264), yuv420p, 1920x808 [SAR 1:1 DAR 240:101], q=-1--1, 23.98 fps, 90k tbn, 23.98 tbc (default)
    Metadata:
      encoder         : Lavc58.54.100 libx264
    Side data:
      cpb: bitrate max/min/avg: 6584000/0/0 buffer size: 13169000 vbv_delay: -1
    Stream #0:1: Audio: aac (LC), 48000 Hz, 5.1, fltp (default)
frame=    2 fps=0.0 q=0.0 size=N/A time=00:00:00.50 bitrate=N/A speed=0.691x    
frame=   59 fps= 48 q=28.0 size=N/A time=00:00:02.83 bitrate=N/A speed=2.28x    
[hls @ 0x55b0697c0280] Opening '/config/transcoding-temp/b0db7be11c289cd30e15054fc385702e1.ts' for writing
frame=  103 fps= 59 q=28.0 size=N/A time=00:00:04.56 bitrate=N/A speed=2.61x    
[hls @ 0x55b0697c0280] Opening '/config/transcoding-temp/b0db7be11c289cd30e15054fc385702e2.ts' for writing
frame=  166 fps= 73 q=28.0 size=N/A time=00:00:07.27 bitrate=N/A speed=3.21x    
frame=  185 fps= 75 q=-1.0 Lsize=N/A time=00:00:08.12 bitrate=N/A speed=3.31x    
video:859kB audio:299kB subtitle:0kB other streams:0kB global headers:0kB muxing overhead: unknown
[libx264 @ 0x55b0697d1880] frame I:4     Avg QP:12.56  size: 34126
[libx264 @ 0x55b0697d1880] frame P:76    Avg QP:17.43  size:  8244
[libx264 @ 0x55b0697d1880] frame B:105   Avg QP:19.50  size:  1104
[libx264 @ 0x55b0697d1880] consecutive B-frames: 19.5% 14.1%  1.6% 64.9%
[libx264 @ 0x55b0697d1880] mb I  I16..4: 89.5%  0.0% 10.5%
[libx264 @ 0x55b0697d1880] mb P  I16..4: 13.0%  0.0%  0.0%  P16..4:  6.9%  0.0%  0.0%  0.0%  0.0%    skip:80.2%
[libx264 @ 0x55b0697d1880] mb B  I16..4:  1.1%  0.0%  0.0%  B16..8:  2.2%  0.0%  0.0%  direct: 0.5%  skip:96.3%  L0:31.1% L1:34.8% BI:34.1%
[libx264 @ 0x55b0697d1880] coded y,uvDC,uvAC intra: 24.2% 18.2% 14.9% inter: 1.4% 1.5% 0.7%
[libx264 @ 0x55b0697d1880] i16 v,h,dc,p: 57% 40%  3%  0%
[libx264 @ 0x55b0697d1880] i4 v,h,dc,ddl,ddr,vr,hd,vl,hu: 27% 21% 31%  3%  3%  4%  2%  6%  2%
[libx264 @ 0x55b0697d1880] i8c dc,h,v,p: 35% 40% 24%  0%
[libx264 @ 0x55b0697d1880] Weighted P-Frames: Y:0.0% UV:0.0%
[libx264 @ 0x55b0697d1880] kb/s:911.29